<?xml version="1.0" encoding="utf-8"?>
<!-- Generator: Adobe Illustrator 21.1.0, SVG Export Plug-In . SVG Version: 6.00 Build 0)  -->
<svg version="1.1" id="_64px" xmlns="http://www.w3.org/2000/svg" xmlns:xlink="http://www.w3.org/1999/xlink" x="0px" y="0px"
	 viewBox="0 0 64 64" style="enable-background:new 0 0 64 64;" xml:space="preserve">
<style type="text/css">
	.st0{fill:#FFFFFF;}
</style>
<title>bpk</title>
<g id="Line">
	<g id="Bespoke">
		<path class="st0" d="M32,7C18.2,7,7,18.2,7,32s11.2,25,25,25s25-11.2,25-25S45.8,7,32,7z M32,9c12.7,0,23,10.3,23,23
			c0,5-1.6,9.8-4.6,13.8c-2.2-6-7.2-10.6-13.5-12.2c4.5-2.7,5.9-8.5,3.2-13s-8.5-5.9-13-3.2s-5.9,8.5-3.2,13
			c0.8,1.3,1.9,2.4,3.2,3.2c-6.2,1.7-11.3,6.3-13.4,12.4C6,35.9,7.9,21.5,18,13.8C22,10.7,26.9,9,32,9z M32,33
			c-4.1,0-7.5-3.4-7.5-7.5S27.9,18,32,18s7.5,3.4,7.5,7.5C39.5,29.6,36.1,33,32,33z M32,55c-6.3,0-12.4-2.6-16.7-7.2
			c2.6-9.3,12.2-14.7,21.5-12.1c5.8,1.6,10.4,6.1,12.1,12C44.5,52.3,38.4,55,32,55z"/>
	</g>
</g>
</svg>
