<?xml version="1.0" encoding="UTF-8"?>
<svg width="16px" height="16px" viewBox="0 0 16 16" version="1.1" xmlns="http://www.w3.org/2000/svg" xmlns:xlink="http://www.w3.org/1999/xlink">
    <!-- Generator: Sketch 41.2 (35397) - http://www.bohemiancoding.com/sketch -->
    <title>brand-logo</title>
    <desc>Created with Sketch.</desc>
    <defs></defs>
    <g id="STORYBOARD" stroke="none" stroke-width="1" fill="none" fill-rule="evenodd">
        <g id="brand-logo">
            <g id="Group">
                <polygon id="Fill-1" fill="#1F7EAE" points="0 16.38018 16.38035 16.38018 16.38035 -0.00017 0 -0.00017"></polygon>
                <path d="M4.983,12.2702376 C4.952,12.188683 4.911,12.1171969 4.86,12.0557793 C4.809,11.9953685 4.748,11.9470399 4.678,11.9118002 C4.608,11.8765606 4.531,11.8584374 4.447,11.8584374 L2.965,11.8584374 L2.965,13.1753927 L4.398,13.1753927 C4.487,13.1753927 4.57,13.1592831 4.647,13.127064 C4.724,13.0938381 4.79,13.0475232 4.846,12.9891261 C4.902,12.930729 4.947,12.8612565 4.979,12.7817157 C5.011,12.7011679 5.028,12.6165928 5.028,12.5279903 C5.028,12.4393878 5.012,12.352799 4.983,12.2702376 Z M2.965,9.83064841 L2.965,11.0912203 L4.251,11.0912203 C4.415,11.0912203 4.553,11.0348369 4.668,10.9220701 C4.781,10.8093033 4.839,10.6542489 4.839,10.4579138 C4.839,10.2656061 4.786,10.1125654 4.682,9.99979863 C4.577,9.88703182 4.447,9.83064841 4.293,9.83064841 L2.965,9.83064841 Z M5.874,13.2670157 C5.79,13.4271043 5.675,13.5610149 5.528,13.6687475 C5.381,13.7764801 5.211,13.8590415 5.017,13.9154249 C4.824,13.9718083 4.618,14 4.398,14 L2,14 L2,9 L4.657,9 C4.83,9 4.986,9.03725332 5.125,9.11276681 C5.266,9.18727346 5.385,9.28493758 5.483,9.40475232 C5.58,9.52456706 5.656,9.66049134 5.71,9.81353202 C5.764,9.96556585 5.79,10.1196134 5.79,10.2746677 C5.79,10.5183246 5.73,10.7478856 5.609,10.9613371 C5.487,11.1747886 5.31,11.3328635 5.077,11.4365687 C5.361,11.5211438 5.586,11.6721708 5.751,11.8906565 C5.917,12.1091422 6,12.3819976 6,12.7112364 C6,12.9216673 5.958,13.107934 5.874,13.2670157 Z" id="Fill-2" fill="#EFF0F1"></path>
            </g>
        </g>
    </g>
</svg>