<?xml version="1.0" encoding="utf-8"?>
<!-- Generator: Adobe Illustrator 24.0.1, SVG Export Plug-In . SVG Version: 6.00 Build 0)  -->
<svg version="1.1" id="Слой_1" xmlns="http://www.w3.org/2000/svg" xmlns:xlink="http://www.w3.org/1999/xlink" x="0px" y="0px"
	 viewBox="0 0 28 28" style="enable-background:new 0 0 28 28;" xml:space="preserve">
<style type="text/css">
	.st0{fill:#FFFFFF;}
</style>
<path class="st0" d="M22.5,17c-3,0-5.5,2.5-5.5,5.5s2.5,5.5,5.5,5.5s5.5-2.5,5.5-5.5S25.5,17,22.5,17z M25.5,23H23v2.5
	c0,0.3-0.2,0.5-0.5,0.5S22,25.8,22,25.5V23h-2.5c-0.3,0-0.5-0.2-0.5-0.5s0.2-0.5,0.5-0.5H22v-2.5c0-0.3,0.2-0.5,0.5-0.5
	s0.5,0.2,0.5,0.5V22h2.5c0.3,0,0.5,0.2,0.5,0.5S25.8,23,25.5,23z"/>
<path class="st0" d="M14,0C6.3,0,0,6.3,0,14c0,4.1,1.8,7.7,4.5,10.3C7,26.6,10.4,28,14,28c1.5,0,2.9-0.2,4.2-0.6
	c-0.3-0.3-0.5-0.5-0.8-0.8c-0.9-1.1-1.4-2.5-1.4-4c0-2.8,1.8-5.2,4.3-6.1C18.6,14.9,16.4,14,14,14c-5,0-9.1,3.9-9.5,8.9
	C2.3,20.6,1,17.4,1,14C1,6.8,6.8,1,14,1c7.2,0,13,5.8,13,13c0,1.2-0.2,2.3-0.5,3.4c0.3,0.2,0.6,0.5,0.8,0.8c0.4-1.3,0.6-2.7,0.6-4.2
	C28,6.3,21.7,0,14,0z"/>
<circle class="st0" cx="14" cy="8" r="5"/>
</svg>
