<svg width="24" height="24" viewBox="0 0 24 24" fill="none" xmlns="http://www.w3.org/2000/svg">
<path fill-rule="evenodd" clip-rule="evenodd" d="M15 14H17.5C18.3284 14 19 13.3284 19 12.5V6.5C19 5.67157 18.3284 5 17.5 5H11.5C10.6716 5 10 5.67157 10 6.5V9H12.5C13.8807 9 15 10.1193 15 11.5V14ZM15 15V17.5C15 18.8807 13.8807 20 12.5 20H6.5C5.11929 20 4 18.8807 4 17.5V11.5C4 10.1193 5.11929 9 6.5 9H9V6.5C9 5.11929 10.1193 4 11.5 4H17.5C18.8807 4 20 5.11929 20 6.5V12.5C20 13.8807 18.8807 15 17.5 15H15ZM5 11.5C5 10.6716 5.67157 10 6.5 10H12.5C13.3284 10 14 10.6716 14 11.5V17.5C14 18.3284 13.3284 19 12.5 19H6.5C5.67157 19 5 18.3284 5 17.5V11.5Z" fill="#7A88B0"/>
</svg>
