<svg width="24" height="24" viewBox="0 0 24 24" fill="none" xmlns="http://www.w3.org/2000/svg">
<g clip-path="url(#clip0_2017_3516)">
<path fill-rule="evenodd" clip-rule="evenodd" d="M0.5 12.2791C0.5 5.78619 5.63454 0.5 12 0.5C18.3626 0.5 23.5 5.78611 23.5 12.2791C23.5 17.4698 20.2149 21.8907 15.6098 23.4401C15.5897 23.4468 15.5692 23.4523 15.5485 23.4565C15.1524 23.5358 14.7848 23.4654 14.519 23.2165C14.2717 22.9848 14.1941 22.6733 14.1941 22.4305C14.1941 22.3079 14.1956 22.0916 14.1976 21.8042C14.1987 21.6575 14.1998 21.4924 14.201 21.3117C14.2044 20.7746 14.2078 20.0952 14.2078 19.342C14.2078 18.392 13.8873 17.8522 13.6351 17.6303C13.4866 17.4997 13.429 17.2938 13.4883 17.1051C13.5476 16.9164 13.7125 16.7803 13.909 16.7581C15.1027 16.6228 16.2338 16.3297 17.0668 15.6144C17.8774 14.9183 18.4841 13.7523 18.4841 11.6909C18.4841 10.5855 18.1049 9.69664 17.4828 8.99663C17.3585 8.85672 17.3227 8.65909 17.3901 8.48448C17.4665 8.28651 17.7639 7.40221 17.383 6.1591C17.3149 6.16529 17.231 6.17729 17.1308 6.19905C16.7186 6.28858 16.0262 6.54446 15.0215 7.24567C14.8983 7.33167 14.7429 7.35769 14.5984 7.31653C13.7664 7.07961 12.8779 6.96071 11.9853 6.95497C11.0928 6.96071 10.2042 7.07961 9.37228 7.31653C9.22828 7.35754 9.07348 7.33186 8.95043 7.24654C7.93865 6.54501 7.24249 6.28881 6.82815 6.19912C6.72707 6.17724 6.64252 6.16522 6.57392 6.15904C6.19242 7.40425 6.49404 8.28413 6.57272 8.46537C6.65046 8.64443 6.61689 8.85234 6.48676 8.99783C5.86106 9.69736 5.482 10.5856 5.482 11.6909C5.482 13.7463 6.08769 14.9144 6.89793 15.614C7.73002 16.3325 8.85961 16.6303 10.0499 16.7678C10.2453 16.7903 10.4093 16.9254 10.4689 17.1128C10.5286 17.3002 10.4728 17.5052 10.3265 17.6366C10.1168 17.8248 9.87758 18.204 9.7913 18.8401C9.76826 19.0099 9.65982 19.1561 9.50398 19.2275C9.15567 19.387 8.50598 19.6228 7.7803 19.5563C7.06281 19.4905 6.32129 19.1323 5.76003 18.252C5.85086 18.4235 5.93882 18.6148 6.0207 18.8278C6.02503 18.839 6.02895 18.8505 6.03245 18.862L6.03476 18.8689C6.03762 18.8772 6.04307 18.8924 6.05149 18.9133C6.06839 18.9552 6.09686 19.0193 6.13974 19.0965C6.22594 19.2517 6.36681 19.4537 6.5834 19.6382C6.99507 19.989 7.75677 20.3421 9.15068 20.0323C9.29832 19.9995 9.45287 20.0353 9.57107 20.1296C9.68927 20.224 9.75842 20.3667 9.75916 20.518C9.76168 21.034 9.76563 21.4855 9.76865 21.831C9.77108 22.1093 9.77292 22.3189 9.77292 22.4382C9.77292 22.6879 9.6901 22.9973 9.44484 23.2267C9.18221 23.4722 8.81919 23.5473 8.42648 23.4715C8.40389 23.4671 8.38163 23.4612 8.35986 23.4538C3.78732 21.8944 0.5 17.4771 0.5 12.2791ZM5.08202 19.173C4.85721 18.5935 4.59087 18.2426 4.39633 18.043C4.29768 17.9417 4.21573 17.8776 4.16419 17.8415C4.13837 17.8234 4.12009 17.8123 4.11105 17.807C4.10842 17.8055 4.10554 17.8039 4.10554 17.8039C4.08383 17.793 4.06294 17.7805 4.04305 17.7665C3.78847 17.5879 3.55771 17.3866 3.45883 17.1438C3.39976 16.9987 3.37977 16.8173 3.45702 16.6367C3.52836 16.4698 3.65365 16.3729 3.74332 16.3206C3.91068 16.2231 4.10273 16.1951 4.19914 16.1842C4.25731 16.1776 4.3085 16.1747 4.34533 16.1734C4.36397 16.1728 4.37952 16.1725 4.39113 16.1724L4.40565 16.1724L4.4106 16.1724L4.41248 16.1724L4.41361 16.1724C4.42319 16.1725 4.4331 16.173 4.44266 16.1736C5.15737 16.2244 5.68458 16.5993 6.01593 16.9278C6.18357 17.094 6.30964 17.2565 6.39437 17.3781C6.43698 17.4392 6.46979 17.491 6.49277 17.529C6.50428 17.548 6.51338 17.5636 6.52005 17.5754L6.52827 17.5901C6.93722 18.307 7.43497 18.5204 7.87162 18.5605C8.22891 18.5932 8.57937 18.5119 8.85042 18.4148C8.91127 18.1253 9.00031 17.8658 9.11102 17.6377C8.1031 17.4473 7.07745 17.0902 6.24438 16.3709C5.1601 15.4346 4.482 13.957 4.482 11.6909C4.482 10.4495 4.87833 9.40279 5.54775 8.56069C5.38047 7.99327 5.21621 6.88548 5.74304 5.50137C5.7967 5.36039 5.91113 5.25118 6.05446 5.20415L6.21033 5.67923C6.05446 5.20415 6.05545 5.20383 6.05545 5.20383L6.05646 5.2035L6.05855 5.20283L6.063 5.20143L6.07298 5.19843C6.08011 5.19635 6.08821 5.19412 6.09726 5.1918C6.11539 5.18716 6.13733 5.1822 6.16314 5.17742C6.21483 5.16787 6.28164 5.15916 6.36392 5.15534C6.52885 5.14767 6.75312 5.15973 7.0397 5.22176C7.57752 5.33817 8.33098 5.62961 9.32624 6.29285C10.1854 6.07041 11.0854 5.96048 11.9823 5.95497L11.9884 5.95493C12.8849 5.96044 13.7847 6.07033 14.6436 6.29263C15.6322 5.62981 16.3823 5.33832 16.9186 5.22183C17.2045 5.15973 17.4285 5.14766 17.5932 5.15534C17.6755 5.15917 17.7422 5.16788 17.7939 5.17744C17.8197 5.18221 17.8416 5.18718 17.8597 5.19181C17.8688 5.19413 17.8768 5.19636 17.884 5.19844L17.8939 5.20144L17.8984 5.20283L17.9005 5.2035L17.9015 5.20383C17.9015 5.20383 17.9025 5.20415 17.7466 5.67923L17.9025 5.20415C18.0458 5.25118 18.1602 5.36039 18.2139 5.50137C18.7434 6.89254 18.5734 8.00087 18.418 8.55586C19.086 9.39851 19.4841 10.4467 19.4841 11.6909C19.4841 13.9625 18.8052 15.4397 17.7183 16.3731C16.8847 17.0888 15.8589 17.4418 14.8511 17.6295C15.0703 18.0793 15.2078 18.6548 15.2078 19.342C15.2078 20.0981 15.2044 20.7799 15.2009 21.3181C15.1998 21.5029 15.1986 21.6701 15.1976 21.8175C15.1956 22.1013 15.1941 22.3114 15.1941 22.4305C15.1941 22.4519 15.1978 22.4702 15.2021 22.4819L15.2028 22.4836L15.2038 22.4838C15.2177 22.4869 15.2551 22.4921 15.3245 22.4809C19.5036 21.0588 22.5 17.0292 22.5 12.2791C22.5 6.31461 17.7869 1.5 12 1.5C6.21046 1.5 1.5 6.31453 1.5 12.2791C1.5 17.0358 4.49798 21.0625 8.64592 22.4947C8.70913 22.504 8.74375 22.4989 8.75702 22.4958C8.75912 22.4953 8.76215 22.4944 8.76215 22.4944C8.76215 22.4944 8.76379 22.4909 8.76477 22.4883C8.76927 22.4763 8.77292 22.4585 8.77292 22.4382C8.77292 22.3194 8.77113 22.1161 8.76873 21.844C8.76691 21.6377 8.76475 21.3918 8.76275 21.1131C7.43239 21.2739 6.52534 20.9025 5.93489 20.3994C5.60767 20.1207 5.39596 19.8169 5.26555 19.5821C5.20012 19.4643 5.15427 19.3623 5.12392 19.2869C5.10871 19.2492 5.09731 19.2179 5.08923 19.1944C5.08644 19.1864 5.08405 19.1792 5.08202 19.173Z" fill="#45A6FF"/>
</g>
<defs>
<clipPath id="clip0_2017_3516">
<rect width="24" height="24" fill="white" transform="matrix(1 0 0 -1 0 24)"/>
</clipPath>
</defs>
</svg>
