<svg width="24" height="24" viewBox="0 0 24 24" fill="none" xmlns="http://www.w3.org/2000/svg">
<path fill-rule="evenodd" clip-rule="evenodd" d="M12 22C6.47715 22 2 17.5228 2 12C2 6.47715 6.47715 2 12 2C17.5228 2 22 6.47715 22 12C22 17.5228 17.5228 22 12 22ZM8.73255 3.61148C6.64006 4.42713 4.92787 6.00314 3.93552 8H6.49925C6.97161 6.19815 7.75335 4.67314 8.73255 3.61148ZM3 12C3 10.9481 3.18046 9.93834 3.51212 9H6.27468C6.09621 9.94704 6 10.9548 6 12C6 13.0452 6.09621 14.053 6.27468 15H3.51212C3.18046 14.0617 3 13.0519 3 12ZM3.93552 16C4.92787 17.9969 6.64006 19.5729 8.73256 20.3885C7.75335 19.3269 6.97161 17.8019 6.49925 16H3.93552ZM7.53581 16C7.81011 16.9657 8.17858 17.8294 8.61485 18.5566C9.46403 19.9719 10.4886 20.7574 11.5 20.9518V16H7.53581ZM12.5 16V20.9518C13.5114 20.7574 14.536 19.9719 15.3851 18.5566C15.8214 17.8294 16.1899 16.9657 16.4642 16H12.5ZM16.7065 15H12.5V9H16.7065C16.8956 9.93428 17 10.9429 17 12C17 13.0571 16.8956 14.0657 16.7065 15ZM17.5007 16C17.0284 17.8019 16.2466 19.3269 15.2674 20.3885C17.3599 19.5729 19.0721 17.9969 20.0645 16H17.5007ZM20.4879 15H17.7253C17.9038 14.053 18 13.0452 18 12C18 10.9548 17.9038 9.94704 17.7253 9H20.4879C20.8195 9.93834 21 10.9481 21 12C21 13.0519 20.8195 14.0617 20.4879 15ZM11.5 15H7.29354C7.10441 14.0657 7 13.0571 7 12C7 10.9429 7.10441 9.93428 7.29354 9H11.5V15ZM12.5 8H16.4642C16.1899 7.03431 15.8214 6.17056 15.3851 5.44343C14.536 4.02813 13.5114 3.24265 12.5 3.04817V8ZM17.5007 8H20.0645C19.0721 6.00314 17.3599 4.42713 15.2674 3.61148C16.2466 4.67313 17.0284 6.19815 17.5007 8ZM7.53581 8H11.5V3.04817C10.4886 3.24265 9.46403 4.02813 8.61485 5.44343C8.17858 6.17056 7.81011 7.03431 7.53581 8Z" fill="#45A6FF"/>
</svg>
