<svg width="24" height="24" viewBox="0 0 24 24" fill="none" xmlns="http://www.w3.org/2000/svg">
<path d="M21.5467 5.84651C21.2325 5.98268 20.9095 6.0976 20.5794 6.1909C20.9702 5.75908 21.2681 5.25097 21.45 4.69496C21.4908 4.57033 21.4485 4.43391 21.3437 4.3524C21.239 4.27082 21.0935 4.26105 20.9782 4.32781C20.2772 4.73404 19.521 5.02598 18.728 5.19669C17.9293 4.43403 16.8444 4 15.7228 4C13.3554 4 11.4293 5.88194 11.4293 8.19514C11.4293 8.37733 11.4411 8.55851 11.4645 8.73716C8.52677 8.48513 5.79561 7.07422 3.92014 4.82627C3.8533 4.74614 3.75033 4.70296 3.64491 4.71122C3.53943 4.71929 3.44465 4.77741 3.39136 4.86674C3.01098 5.50452 2.80988 6.23396 2.80988 6.97613C2.80988 7.98698 3.17924 8.94608 3.83169 9.6955C3.6333 9.62836 3.44078 9.54446 3.25704 9.44479C3.1584 9.39114 3.03801 9.39196 2.94001 9.44687C2.84195 9.50178 2.78046 9.60277 2.77788 9.71315C2.77743 9.73175 2.77743 9.75034 2.77743 9.76919C2.77743 11.2781 3.60852 12.6365 4.87917 13.3769C4.77 13.3663 4.66091 13.3508 4.55252 13.3306C4.44078 13.3097 4.32588 13.348 4.25052 13.4313C4.17504 13.5145 4.15007 13.6305 4.18485 13.7364C4.65517 15.1712 5.86607 16.2265 7.32993 16.5483C6.11581 17.2913 4.72736 17.6806 3.26982 17.6806C2.96569 17.6806 2.65982 17.6631 2.36046 17.6285C2.21175 17.6112 2.06956 17.697 2.01892 17.8352C1.96827 17.9734 2.02195 18.1276 2.14846 18.2068C4.02091 19.3799 6.186 20 8.40954 20C12.7808 20 15.5153 17.9859 17.0394 16.2962C18.9401 14.1893 20.0301 11.4006 20.0301 8.64519C20.0301 8.53007 20.0283 8.41383 20.0247 8.29796C20.7746 7.74592 21.4202 7.07782 21.9456 6.30992C22.0254 6.1933 22.0167 6.03916 21.9243 5.93181C21.8319 5.82439 21.6781 5.78965 21.5467 5.84651Z" stroke="#45A6FF" stroke-linecap="round" stroke-linejoin="round"/>
</svg>
