<svg width="24" height="24" viewBox="0 0 24 24" fill="none" xmlns="http://www.w3.org/2000/svg">
<path fill-rule="evenodd" clip-rule="evenodd" d="M21.9998 1.57912C22.8526 1.2351 23.6414 2.02257 23.4771 2.84929L19.7437 21.6006C19.5888 22.3799 18.6808 22.7837 18.0152 22.2787C18.0151 22.2787 18.0152 22.2788 18.0152 22.2787L12.9187 18.4153C12.7969 18.323 12.6353 18.327 12.5171 18.4276L9.69202 20.8322C9.69195 20.8323 9.69209 20.8322 9.69202 20.8322C9.07283 21.3605 8.16302 21.0446 7.94043 20.2967C7.94041 20.2967 7.94044 20.2968 7.94043 20.2967L6.04812 13.9425L1.20672 12.0558C0.271154 11.6897 0.26149 10.3351 1.19552 9.95898C1.19551 9.95899 1.19554 9.95898 1.19552 9.95898L21.9998 1.57912C22 1.57906 21.9997 1.57918 21.9998 1.57912ZM7.05036 13.8043L8.12264 17.4049L8.20701 16.27C8.20769 16.2609 8.20861 16.2519 8.20977 16.2429C8.27643 15.7278 8.51224 15.2494 8.88244 14.8896C8.88822 14.884 8.89413 14.8785 8.90017 14.8732L15.6038 8.95992L7.05036 13.8043ZM8.9277 20.064C8.94039 20.0774 8.95464 20.0852 8.96771 20.0893C8.9811 20.0935 8.99354 20.0939 9.00413 20.0919C9.01362 20.09 9.02668 20.0854 9.04276 20.0717L11.869 17.666C12.3431 17.2626 13.0254 17.2414 13.5227 17.6183L18.6193 21.4818C18.636 21.4946 18.6494 21.4984 18.6589 21.4995C18.6697 21.5008 18.6827 21.4995 18.6968 21.4939C18.7235 21.4831 18.7526 21.4573 18.7628 21.4056L22.4963 2.65445C22.508 2.59566 22.4872 2.55071 22.4565 2.52344C22.4409 2.50967 22.4258 2.50332 22.4146 2.50111C22.4054 2.4993 22.393 2.49883 22.3739 2.50653L1.56915 10.8866C1.5434 10.8969 1.52958 10.9107 1.51987 10.9264C1.50839 10.9451 1.49951 10.9727 1.49969 11.0056C1.49987 11.0386 1.50905 11.0662 1.52081 11.0848C1.53076 11.1006 1.54473 11.1142 1.5704 11.1243C1.57038 11.1243 1.57042 11.1243 1.5704 11.1243L6.41778 13.0133L17.7949 6.5697C17.9473 6.47727 18.1263 6.44761 18.2986 6.49015C18.4668 6.53163 18.5972 6.63349 18.6819 6.74962C18.8514 6.98198 18.8918 7.36751 18.6059 7.64446C18.6003 7.64986 18.5946 7.65513 18.5888 7.66026L9.57151 15.6145C9.37419 15.8097 9.24313 16.0711 9.20317 16.3588L8.9277 20.064Z" fill="#45A6FF"/>
</svg>
