<svg width="24" height="24" viewBox="0 0 24 24" fill="none" xmlns="http://www.w3.org/2000/svg">
<path fill-rule="evenodd" clip-rule="evenodd" d="M4 5H20C20.089 5 20.1754 5.01164 20.2575 5.03348L13.0587 12.2323C12.473 12.8181 11.5232 12.8181 10.9374 12.2323L3.73944 5.03428C3.82251 5.01193 3.90986 5 4 5ZM3.03346 5.74252C3.01163 5.82467 3 5.91098 3 6V18C3 18.089 3.01164 18.1754 3.03348 18.2575L9.29098 12L3.03346 5.74252ZM4 19C3.90989 19 3.82255 18.9881 3.7395 18.9657L9.99808 12.7071L10.2303 12.9394C11.2066 13.9157 12.7895 13.9157 13.7659 12.9394L14 12.7052L20.2605 18.9657C20.1774 18.9881 20.0901 19 20 19H4ZM20.9665 18.2575C20.9884 18.1754 21 18.089 21 18V6C21 5.90989 20.9881 5.82255 20.9657 5.7395L14.7071 11.9981L20.9665 18.2575ZM2 6C2 4.89543 2.89543 4 4 4H20C21.1046 4 22 4.89543 22 6V18C22 19.1046 21.1046 20 20 20H4C2.89543 20 2 19.1046 2 18V6Z" fill="#45A6FF"/>
</svg>
