<svg width="16" height="16" viewBox="0 0 16 16" fill="none" xmlns="http://www.w3.org/2000/svg">
<path fill-rule="evenodd" clip-rule="evenodd" d="M1.68372 0.288881C1.29855 -0.0962937 0.674056 -0.0962937 0.288881 0.288881C-0.0962937 0.674056 -0.0962937 1.29855 0.288881 1.68372L6.60516 8L0.288881 14.3163C-0.0962931 14.7015 -0.0962931 15.3259 0.288881 15.7111C0.674055 16.0963 1.29855 16.0963 1.68372 15.7111L8 9.39484L14.3163 15.7111C14.7015 16.0963 15.3259 16.0963 15.7111 15.7111C16.0963 15.3259 16.0963 14.7015 15.7111 14.3163L9.39484 8L15.7111 1.68372C16.0963 1.29855 16.0963 0.674056 15.7111 0.288881C15.3259 -0.0962937 14.7015 -0.0962937 14.3163 0.288881L8 6.60516L1.68372 0.288881Z" fill="#7A88B0"/>
</svg>
