<svg width="24" height="24" viewBox="0 0 24 24" fill="none" xmlns="http://www.w3.org/2000/svg">
<path d="M6.5 6.5H17.5V18C17.5 18.8284 16.8284 19.5 16 19.5H8C7.17157 19.5 6.5 18.8284 6.5 18V6.5Z" stroke="#7A88B0"/>
<mask id="path-2-inside-1_134_10288" fill="white">
<path d="M5 6.5C5 6.22386 5.22386 6 5.5 6H18.5C18.7761 6 19 6.22386 19 6.5V6.5C19 6.77614 18.7761 7 18.5 7H5.5C5.22386 7 5 6.77614 5 6.5V6.5Z"/>
</mask>
<path d="M5.5 7H18.5V5H5.5V7ZM18.5 6H5.5V8H18.5V6ZM5.5 6C5.77614 6 6 6.22386 6 6.5H4C4 7.32843 4.67157 8 5.5 8V6ZM18 6.5C18 6.22386 18.2239 6 18.5 6V8C19.3284 8 20 7.32843 20 6.5H18ZM18.5 7C18.2239 7 18 6.77614 18 6.5H20C20 5.67157 19.3284 5 18.5 5V7ZM5.5 5C4.67157 5 4 5.67157 4 6.5H6C6 6.77614 5.77614 7 5.5 7V5Z" fill="#7A88B0" mask="url(#path-2-inside-1_134_10288)"/>
<path d="M10 3.5H14C14.8284 3.5 15.5 4.17157 15.5 5V6.5H8.5V5C8.5 4.17157 9.17157 3.5 10 3.5Z" stroke="#7A88B0"/>
<mask id="path-5-inside-2_134_10288" fill="white">
<path d="M10.5 9C10.7761 9 11 9.22386 11 9.5L11 16.5C11 16.7761 10.7761 17 10.5 17V17C10.2239 17 10 16.7761 10 16.5L10 9.5C10 9.22386 10.2239 9 10.5 9V9Z"/>
</mask>
<path d="M10 9.5L10 16.5L12 16.5L12 9.5L10 9.5ZM11 16.5L11 9.5L9 9.5L9 16.5L11 16.5ZM11 9.5C11 9.77614 10.7761 10 10.5 10L10.5 8C9.67157 8 9 8.67157 9 9.5L11 9.5ZM10.5 16C10.7761 16 11 16.2239 11 16.5L9 16.5C9 17.3284 9.67157 18 10.5 18L10.5 16ZM10 16.5C10 16.2239 10.2239 16 10.5 16L10.5 18C11.3284 18 12 17.3284 12 16.5L10 16.5ZM12 9.5C12 8.67157 11.3284 8 10.5 8L10.5 10C10.2239 10 10 9.77614 10 9.5L12 9.5Z" fill="#7A88B0" mask="url(#path-5-inside-2_134_10288)"/>
<mask id="path-7-inside-3_134_10288" fill="white">
<path d="M13.5 9C13.7761 9 14 9.22386 14 9.5L14 16.5C14 16.7761 13.7761 17 13.5 17V17C13.2239 17 13 16.7761 13 16.5L13 9.5C13 9.22386 13.2239 9 13.5 9V9Z"/>
</mask>
<path d="M13 9.5L13 16.5L15 16.5L15 9.5L13 9.5ZM14 16.5L14 9.5L12 9.5L12 16.5L14 16.5ZM14 9.5C14 9.77614 13.7761 10 13.5 10L13.5 8C12.6716 8 12 8.67157 12 9.5L14 9.5ZM13.5 16C13.7761 16 14 16.2239 14 16.5L12 16.5C12 17.3284 12.6716 18 13.5 18L13.5 16ZM13 16.5C13 16.2239 13.2239 16 13.5 16L13.5 18C14.3284 18 15 17.3284 15 16.5L13 16.5ZM15 9.5C15 8.67157 14.3284 8 13.5 8L13.5 10C13.2239 10 13 9.77614 13 9.5L15 9.5Z" fill="#7A88B0" mask="url(#path-7-inside-3_134_10288)"/>
</svg>
