<svg width="24" height="24" viewBox="0 0 24 24" fill="none" xmlns="http://www.w3.org/2000/svg">
<path fill-rule="evenodd" clip-rule="evenodd" d="M18 7H6V20C6 20.5523 6.44772 21 7 21H17C17.5523 21 18 20.5523 18 20V7ZM5 6V20C5 21.1046 5.89543 22 7 22H17C18.1046 22 19 21.1046 19 20V6H5Z" fill="#45A6FF"/>
<mask id="path-2-inside-1_125_5557" fill="white">
<path d="M2 6.5C2 6.22386 2.22386 6 2.5 6H21.5C21.7761 6 22 6.22386 22 6.5C22 6.77614 21.7761 7 21.5 7H2.5C2.22386 7 2 6.77614 2 6.5Z"/>
</mask>
<path d="M2.5 7H21.5V5H2.5V7ZM21.5 6H2.5V8H21.5V6ZM2.5 6C2.77614 6 3 6.22386 3 6.5H1C1 7.32843 1.67157 8 2.5 8V6ZM21 6.5C21 6.22386 21.2239 6 21.5 6V8C22.3284 8 23 7.32843 23 6.5H21ZM21.5 7C21.2239 7 21 6.77614 21 6.5H23C23 5.67157 22.3284 5 21.5 5V7ZM2.5 5C1.67157 5 1 5.67157 1 6.5H3C3 6.77614 2.77614 7 2.5 7V5Z" fill="#45A6FF" mask="url(#path-2-inside-1_125_5557)"/>
<path fill-rule="evenodd" clip-rule="evenodd" d="M15 3H9C8.44772 3 8 3.44772 8 4V6H16V4C16 3.44772 15.5523 3 15 3ZM9 2C7.89543 2 7 2.89543 7 4V7H17V4C17 2.89543 16.1046 2 15 2H9Z" fill="#45A6FF"/>
<mask id="path-5-inside-2_125_5557" fill="white">
<path d="M9.5 10C9.77614 10 10 10.2239 10 10.5L10 17.5C10 17.7761 9.77614 18 9.5 18C9.22386 18 9 17.7761 9 17.5L9 10.5C9 10.2239 9.22386 10 9.5 10Z"/>
</mask>
<path d="M9 10.5L9 17.5L11 17.5L11 10.5L9 10.5ZM10 17.5L10 10.5L8 10.5L8 17.5L10 17.5ZM10 10.5C10 10.7761 9.77614 11 9.5 11L9.5 9C8.67157 9 8 9.67157 8 10.5L10 10.5ZM9.5 17C9.77614 17 10 17.2239 10 17.5L8 17.5C8 18.3284 8.67157 19 9.5 19L9.5 17ZM9 17.5C9 17.2239 9.22386 17 9.5 17L9.5 19C10.3284 19 11 18.3284 11 17.5L9 17.5ZM11 10.5C11 9.67157 10.3284 9 9.5 9L9.5 11C9.22386 11 9 10.7761 9 10.5L11 10.5Z" fill="#45A6FF" mask="url(#path-5-inside-2_125_5557)"/>
<mask id="path-7-inside-3_125_5557" fill="white">
<path d="M14.5 10C14.7761 10 15 10.2239 15 10.5L15 17.5C15 17.7761 14.7761 18 14.5 18C14.2239 18 14 17.7761 14 17.5L14 10.5C14 10.2239 14.2239 10 14.5 10Z"/>
</mask>
<path d="M14 10.5L14 17.5L16 17.5L16 10.5L14 10.5ZM15 17.5L15 10.5L13 10.5L13 17.5L15 17.5ZM15 10.5C15 10.7761 14.7761 11 14.5 11L14.5 9C13.6716 9 13 9.67157 13 10.5L15 10.5ZM14.5 17C14.7761 17 15 17.2239 15 17.5L13 17.5C13 18.3284 13.6716 19 14.5 19L14.5 17ZM14 17.5C14 17.2239 14.2239 17 14.5 17L14.5 19C15.3284 19 16 18.3284 16 17.5L14 17.5ZM16 10.5C16 9.67157 15.3284 9 14.5 9L14.5 11C14.2239 11 14 10.7761 14 10.5L16 10.5Z" fill="#45A6FF" mask="url(#path-7-inside-3_125_5557)"/>
</svg>
