<svg width="120" height="120" viewBox="0 0 120 120" fill="none" xmlns="http://www.w3.org/2000/svg">
<path fill-rule="evenodd" clip-rule="evenodd" d="M90 33H30V100C30 101.657 31.3431 103 33 103H87C88.6569 103 90 101.657 90 100V33ZM28 31V100C28 102.761 30.2386 105 33 105H87C89.7614 105 92 102.761 92 100V31H28Z" fill="#EB6060"/>
<path fill-rule="evenodd" clip-rule="evenodd" d="M19 31C18.4477 31 18 31.4477 18 32C18 32.5523 18.4477 33 19 33H101C101.552 33 102 32.5523 102 32C102 31.4477 101.552 31 101 31H19Z" fill="#EB6060"/>
<path fill-rule="evenodd" clip-rule="evenodd" d="M72 17H48C44.6863 17 42 19.6863 42 23V31H78V23C78 19.6863 75.3137 17 72 17ZM48 15C43.5817 15 40 18.5817 40 23V33H80V23C80 18.5817 76.4183 15 72 15H48Z" fill="#EB6060"/>
<path fill-rule="evenodd" clip-rule="evenodd" d="M46 50C46 49.4477 45.5523 49 45 49C44.4477 49 44 49.4477 44 50L44 88C44 88.5523 44.4477 89 45 89C45.5523 89 46 88.5523 46 88L46 50Z" fill="#EB6060"/>
<path fill-rule="evenodd" clip-rule="evenodd" d="M61 50C61 49.4477 60.5523 49 60 49C59.4477 49 59 49.4477 59 50L59 88C59 88.5523 59.4477 89 60 89C60.5523 89 61 88.5523 61 88L61 50Z" fill="#EB6060"/>
<path fill-rule="evenodd" clip-rule="evenodd" d="M76 50C76 49.4477 75.5523 49 75 49C74.4477 49 74 49.4477 74 50L74 88C74 88.5523 74.4477 89 75 89C75.5523 89 76 88.5523 76 88L76 50Z" fill="#EB6060"/>
</svg>
