<svg width="10" height="10" viewBox="0 0 10 10" fill="none" xmlns="http://www.w3.org/2000/svg">
<path fill-rule="evenodd" clip-rule="evenodd" d="M2.64645 4.14238C2.84171 3.95254 3.15829 3.95254 3.35355 4.14238L5.14645 5.88543C5.34171 6.07526 5.65829 6.07526 5.85355 5.88542L7.64645 4.14238C7.84171 3.95254 8.15829 3.95254 8.35355 4.14238C8.54882 4.33221 8.54882 4.63999 8.35355 4.82982L6.56066 6.57287C5.97487 7.14237 5.02513 7.14238 4.43934 6.57287L2.64645 4.82982C2.45118 4.63999 2.45118 4.33221 2.64645 4.14238Z" fill="#E2E7FF"/>
<rect x="1" y="9" width="9" height="1" rx="0.5" fill="#E2E7FF"/>
<path d="M5.5 6.5C5.22386 6.5 5 6.27614 5 6L5 0.5C5 0.223857 5.22386 -9.78513e-09 5.5 -2.18557e-08C5.77614 -3.39263e-08 6 0.223857 6 0.5L6 6C6 6.27614 5.77614 6.5 5.5 6.5Z" fill="#E2E7FF"/>
</svg>
