<svg width="24" height="24" viewBox="0 0 24 24" fill="none" xmlns="http://www.w3.org/2000/svg">
<path fill-rule="evenodd" clip-rule="evenodd" d="M21.852 12.5369C21.974 12.2409 22 12.0661 22 12C22 11.9339 21.974 11.7591 21.852 11.4631C21.7354 11.1803 21.5528 10.8389 21.3008 10.4569C20.7971 9.69327 20.0519 8.82211 19.1179 8.00104C17.2365 6.34705 14.712 5 12 5C9.28797 5 6.76348 6.34705 4.88208 8.00104C3.94812 8.82211 3.20295 9.69327 2.69916 10.4569C2.44717 10.8389 2.2646 11.1803 2.14801 11.4631C2.02601 11.7591 2 11.9339 2 12C2 12.0661 2.02601 12.2409 2.14801 12.5369C2.2646 12.8197 2.44717 13.1611 2.69916 13.5431C3.20295 14.3067 3.94812 15.1779 4.88208 15.999C6.76348 17.653 9.28797 19 12 19C14.712 19 17.2365 17.653 19.1179 15.999C20.0519 15.1779 20.7971 14.3067 21.3008 13.5431C21.5528 13.1611 21.7354 12.8197 21.852 12.5369ZM12 20C18.0751 20 23 14 23 12C23 10 18.0751 4 12 4C5.92487 4 1 10 1 12C1 14 5.92487 20 12 20Z" fill="#45A6FF"/>
<path fill-rule="evenodd" clip-rule="evenodd" d="M12 8.5C10.067 8.5 8.5 10.067 8.5 12C8.5 13.933 10.067 15.5 12 15.5C13.933 15.5 15.5 13.933 15.5 12C15.5 10.067 13.933 8.5 12 8.5ZM7.5 12C7.5 9.51472 9.51472 7.5 12 7.5C14.4853 7.5 16.5 9.51472 16.5 12C16.5 14.4853 14.4853 16.5 12 16.5C9.51472 16.5 7.5 14.4853 7.5 12Z" fill="#45A6FF"/>
</svg>
