<svg width="24" height="24" viewBox="0 0 24 24" fill="none" xmlns="http://www.w3.org/2000/svg">
<path fill-rule="evenodd" clip-rule="evenodd" d="M11 15C11 15.5523 11.4477 16 12 16C12.5523 16 13 15.5523 13 15C13 14.4477 12.5523 14 12 14C11.4477 14 11 14.4477 11 15ZM12 13C10.8954 13 10 13.8954 10 15C10 16.1046 10.8954 17 12 17C13.1046 17 14 16.1046 14 15C14 13.8954 13.1046 13 12 13Z" fill="#45A6FF"/>
<path fill-rule="evenodd" clip-rule="evenodd" d="M11 2H13C14.1046 2 15 2.89543 15 4V7H9V4C9 2.89543 9.89543 2 11 2ZM8 7V4C8 2.34315 9.34315 1 11 1H13C14.6569 1 16 2.34315 16 4V7H18C19.6569 7 21 8.34315 21 10V20C21 21.6569 19.6569 23 18 23H6C4.34315 23 3 21.6569 3 20V10C3 8.34315 4.34315 7 6 7H8ZM16 8H8H6C4.89543 8 4 8.89543 4 10V20C4 21.1046 4.89543 22 6 22H18C19.1046 22 20 21.1046 20 20V10C20 8.89543 19.1046 8 18 8H16Z" fill="#45A6FF"/>
</svg>
