<svg width="24" height="24" viewBox="0 0 24 24" fill="none" xmlns="http://www.w3.org/2000/svg">
<path fill-rule="evenodd" clip-rule="evenodd" d="M6.5 4C5.11929 4 4 5.11929 4 6.5V8.5C4 8.77614 3.77614 9 3.5 9C3.22386 9 3 8.77614 3 8.5V6.5C3 4.567 4.567 3 6.5 3H8.5C8.77614 3 9 3.22386 9 3.5C9 3.77614 8.77614 4 8.5 4H6.5ZM16 3.5C16 3.22386 16.2239 3 16.5 3H17.5C19.433 3 21 4.567 21 6.5V8.5C21 8.77614 20.7761 9 20.5 9C20.2239 9 20 8.77614 20 8.5V6.5C20 5.11929 18.8807 4 17.5 4H16.5C16.2239 4 16 3.77614 16 3.5Z" fill="#45A6FF"/>
<path fill-rule="evenodd" clip-rule="evenodd" d="M6.5 21C5.11929 21 4 19.8807 4 18.5V16.5C4 16.2239 3.77614 16 3.5 16C3.22386 16 3 16.2239 3 16.5V18.5C3 20.433 4.567 22 6.5 22H8.5C8.77614 22 9 21.7761 9 21.5C9 21.2239 8.77614 21 8.5 21H6.5ZM16 21.5C16 21.7761 16.2239 22 16.5 22H17.5C19.433 22 21 20.433 21 18.5V16.5C21 16.2239 20.7761 16 20.5 16C20.2239 16 20 16.2239 20 16.5V18.5C20 19.8807 18.8807 21 17.5 21H16.5C16.2239 21 16 21.2239 16 21.5Z" fill="#45A6FF"/>
<rect x="1" y="12" width="22" height="1" rx="0.5" fill="#45A6FF"/>
</svg>
