<svg width="10" height="10" viewBox="0 0 10 10" fill="none" xmlns="http://www.w3.org/2000/svg">
<path fill-rule="evenodd" clip-rule="evenodd" d="M7 4C7 5.65685 5.65685 7 4 7C2.34315 7 1 5.65685 1 4C1 2.34315 2.34315 1 4 1C5.65685 1 7 2.34315 7 4ZM6.45282 7.15993C5.77548 7.68646 4.92436 8 4 8C1.79086 8 0 6.20914 0 4C0 1.79086 1.79086 0 4 0C6.20914 0 8 1.79086 8 4C8 4.92436 7.68646 5.77548 7.15993 6.45282L9.85355 9.14645C10.0488 9.34171 10.0488 9.65829 9.85355 9.85355C9.65829 10.0488 9.34171 10.0488 9.14645 9.85355L6.45282 7.15993Z" fill="#E2E7FF"/>
</svg>
