<svg width="24" height="24" viewBox="0 0 24 24" fill="none" xmlns="http://www.w3.org/2000/svg">
<path fill-rule="evenodd" clip-rule="evenodd" d="M12 1.49976L12.26 1.64654C14.2947 2.79505 17.1241 3.26764 19.5484 3.50226L19.9937 3.54534L20.0002 3.9926C20.0037 4.22794 20.0037 4.73259 20.0028 5.17359C20.0024 5.39514 20.0018 5.60223 20.0013 5.75392L20.0004 5.99762L20.0003 5.99993V6.00096L20.0003 6.00202L20.0003 16.5111L19.9901 16.5606C19.4316 19.2918 17.2863 21.0866 12.191 22.9306L12 22.9998L11.8149 22.9161C9.89767 22.0492 8.14233 21.1243 6.7896 20.1033C5.44201 19.0863 4.42343 17.9367 4.02141 16.605L4.00008 16.5343L4.00008 16.4605C4.00003 15.4606 3.99979 7.99988 4.00053 5.99975C4.00064 5.70021 4.00046 5.32597 4.00028 4.96431C4.0001 4.60037 3.99993 4.24917 4.00007 3.99965L4.00032 3.56369L4.43225 3.50455C5.91516 3.30154 7.37921 3.05127 8.66111 2.73187C9.95193 2.41025 11.0332 2.10972 11.7475 1.6591L12 1.49976ZM19.0003 5.99775L19.0013 5.75049C19.0018 5.59914 19.0024 5.3926 19.0028 5.17172C19.0033 4.9294 19.0035 4.67173 19.003 4.45103C16.9029 4.21853 14.4773 3.7417 12.5001 2.81814V21.6787C16.9979 19.9629 18.5619 18.4586 19.0003 16.4088L19.0003 5.99775ZM11.5209 21.6787L11.5001 2.83476C10.7575 3.17847 9.86484 3.46252 8.90288 3.70221C7.69966 4.00201 6.3555 4.24003 5.00005 4.43472C5.0001 4.60019 5.00019 4.77986 5.00028 4.96288C5.00046 5.32321 5.00064 5.69653 5.00053 6.00012C4.9998 7.95507 5.00002 15.1485 5.00007 16.3841C5.32904 17.399 6.1482 18.3664 7.392 19.3051C8.49823 20.14 9.92356 20.9242 11.5209 21.6787Z" fill="#45A6FF"/>
</svg>
