<svg width="120" height="120" viewBox="0 0 120 120" fill="none" xmlns="http://www.w3.org/2000/svg">
<path fill-rule="evenodd" clip-rule="evenodd" d="M83.1748 16.2004C82.9351 15.7115 82.3482 15.5044 81.8546 15.7344L40.5135 34.9998H92.3957L83.1748 16.2004ZM36.0258 36.9998C36.009 37.0002 35.9922 37.0002 35.9755 36.9998H23C22.4477 36.9998 22 36.552 22 35.9998C22 35.4475 22.4477 34.9998 23 34.9998H35.7786L81.0098 13.9216C82.4905 13.2315 84.2511 13.853 84.9705 15.3197L88.7374 22.9998H93C101.284 22.9998 108 29.7155 108 37.9998V50.9998H109C115.075 50.9998 120 55.9246 120 61.9998V65.9998C120 72.0749 115.075 76.9998 109 76.9998H96C89.9249 76.9998 85 72.0749 85 65.9998V61.9998C85 55.9246 89.9249 50.9998 96 50.9998H106V37.9998C106 37.6633 105.987 37.3298 105.962 36.9998H94.0254C94.0089 37.0002 93.9925 37.0002 93.9761 36.9998H36.0258ZM94.6233 34.9998L89.7184 24.9998H93C99.1472 24.9998 104.298 29.2664 105.652 34.9998H94.6233ZM96 52.9998C91.0294 52.9998 87 57.0292 87 61.9998V65.9998C87 70.9703 91.0294 74.9998 96 74.9998H109C113.971 74.9998 118 70.9703 118 65.9998V61.9998C118 57.0292 113.971 52.9998 109 52.9998H96ZM101 68C103.209 68 105 66.2087 105 64C105 61.7906 103.209 60 101 60C98.7906 60 96.9999 61.7906 96.9999 64C96.9999 66.2087 98.7906 68 101 68Z" fill="#EB6060"/>
<path fill-rule="evenodd" clip-rule="evenodd" d="M4.12154 103L39.8761 103C40.6404 103 41.1222 102.177 40.7482 101.511L22.871 69.5C22.4889 68.819 21.5087 68.819 21.1267 69.5L3.2494 101.511C2.87546 102.177 3.35723 103 4.12154 103ZM4.12154 105C1.8286 105 0.383291 102.532 1.50511 100.532L19.3824 68.5215C20.5285 66.4785 23.4692 66.4785 24.6152 68.5215L42.4925 100.532C43.6143 102.532 42.169 105 39.8761 105L4.12154 105Z" fill="#EB6060"/>
<path fill-rule="evenodd" clip-rule="evenodd" d="M23.9218 80.0739L22.9986 92.5369C22.9072 93.7717 21.0956 93.7717 21.0041 92.5369L20.0809 80.0739C20.038 79.4941 20.4968 79 21.0782 79H22.9246C23.5059 79 23.9648 79.4941 23.9218 80.0739Z" fill="#EB6060"/>
<path d="M24 97C24 98.1045 23.1046 99 22.0001 99C20.8954 99 20 98.1045 20 97C20 95.8955 20.8954 95 22.0001 95C23.1046 95 24 95.8955 24 97Z" fill="#EB6060"/>
<path fill-rule="evenodd" clip-rule="evenodd" d="M29 25C21.8203 25 16 30.8203 16 38V64L14 67V38C14 29.7157 20.7157 23 29 23H62V25H29Z" fill="#EB6060"/>
<path fill-rule="evenodd" clip-rule="evenodd" d="M93 103C100.18 103 106 97.1797 106 90V77C106 76.4477 106.448 76 107 76C107.552 76 108 76.4477 108 77V90C108 98.2843 101.284 105 93 105H54C53.4477 105 53 104.552 53 104C53 103.448 53.4477 103 54 103H93Z" fill="#EB6060"/>
</svg>
