<svg width="22" height="22" viewBox="0 0 22 22" fill="none" xmlns="http://www.w3.org/2000/svg">
<path d="M21.6707 13.661C20.2014 19.5539 14.2322 23.1402 8.33802 21.6707C2.4462 20.2015 -1.14053 14.2327 0.329506 8.34018C1.79816 2.44665 7.76733 -1.14 13.6598 0.32917C19.5537 1.79834 23.1401 7.76785 21.6707 13.661Z" fill="url(#paint0_linear)"/>
<path d="M15.9713 9.62826C16.2001 8.15719 15.0352 7.36638 13.4424 6.83883L13.9591 4.84609L12.6976 4.54379L12.1945 6.48402C11.8629 6.40456 11.5222 6.32959 11.1838 6.25531L11.6904 4.3023L10.4296 4L9.91252 5.99205C9.63801 5.93194 9.36852 5.87252 9.10694 5.80998L9.10838 5.80377L7.36859 5.38608L7.03299 6.68164C7.03299 6.68164 7.969 6.88789 7.94924 6.90067C8.46018 7.02332 8.55252 7.34842 8.53707 7.60615L7.94852 9.87632C7.98373 9.88495 8.02936 9.89739 8.07967 9.91674C8.03763 9.90672 7.99271 9.89566 7.94636 9.88495L7.12138 13.0651C7.05886 13.2144 6.9004 13.4382 6.54325 13.3533C6.55582 13.3709 5.62628 13.1332 5.62628 13.1332L5 14.5217L6.6417 14.9152C6.94712 14.9888 7.24642 15.0658 7.54106 15.1384L7.01898 17.1539L8.27909 17.4562L8.79614 15.4621C9.14036 15.5519 9.47452 15.6348 9.80149 15.7129L9.28624 17.6977L10.5478 18L11.0699 15.9883C13.2211 16.3797 14.8387 16.2218 15.5196 14.351C16.0683 12.8447 15.4923 11.9758 14.3605 11.4092C15.1847 11.2265 15.8056 10.7051 15.9713 9.62826ZM13.0888 13.5146C12.699 15.0209 10.0613 14.2066 9.20611 14.0024L9.89887 11.3322C10.754 11.5374 13.4963 11.9437 13.0888 13.5146ZM13.4791 9.60649C13.1233 10.9767 10.9279 10.2805 10.2158 10.1099L10.8439 7.68803C11.556 7.8587 13.8495 8.17723 13.4791 9.60649Z" fill="white"/>
<defs>
<linearGradient id="paint0_linear" x1="0" y1="0" x2="0" y2="22" gradientUnits="userSpaceOnUse">
<stop stop-color="#F9AA4B"/>
<stop offset="1" stop-color="#F7931A"/>
</linearGradient>
</defs>
</svg>
