<svg width="24" height="24" viewBox="0 0 24 24" fill="none" xmlns="http://www.w3.org/2000/svg">
<g clip-path="url(#clip0)">
<path d="M21.3574 14.4536C21.375 19.5 17.2072 23.9363 11.9448 24C6.68441 24.0634 2.24982 19.5 2.24961 14.625C2.24961 8.24998 11.7144 -0.0260279 11.7144 -0.0260279C11.7144 -0.0260279 21.3574 8.24999 21.3574 14.4536Z" fill="#53AE94"/>
<path d="M15.7284 12.7727C15.9001 11.5906 15.0264 10.9551 13.8318 10.5312L14.2193 8.92989L13.2732 8.68697L12.8959 10.2461C12.6472 10.1822 12.3917 10.122 12.1378 10.0623L12.5178 8.49292L11.5722 8.25L11.1844 9.85076C10.9785 9.80245 10.7764 9.7547 10.5802 9.70445L10.5813 9.69945L9.27644 9.36381L9.02474 10.4049C9.02474 10.4049 9.72675 10.5706 9.71193 10.5809C10.0951 10.6795 10.1644 10.9407 10.1528 11.1478L9.71139 12.972C9.7378 12.979 9.77202 12.989 9.80975 13.0045C9.77822 12.9965 9.74454 12.9876 9.70977 12.979L9.09104 15.5345C9.04415 15.6544 8.9253 15.8343 8.65744 15.766C8.66687 15.7802 7.96971 15.5892 7.96971 15.5892L7.5 16.7049L8.73127 17.0211C8.96034 17.0803 9.18482 17.1422 9.40579 17.2005L9.01423 18.8201L9.95932 19.063L10.3471 17.4606C10.6053 17.5328 10.8559 17.5994 11.1011 17.6622L10.7147 19.2571L11.6608 19.5L12.0524 17.8834C13.6658 18.198 14.879 18.0711 15.3897 16.5678C15.8012 15.3574 15.3692 14.6591 14.5203 14.2038C15.1385 14.057 15.6042 13.6381 15.7284 12.7727ZM13.5666 15.8957C13.2742 17.1061 11.296 16.4517 10.6546 16.2877L11.1742 14.1419C11.8155 14.3068 13.8722 14.6333 13.5666 15.8957ZM13.8593 12.7552C13.5925 13.8563 11.946 13.2969 11.4118 13.1597L11.8829 11.2136C12.417 11.3507 14.1371 11.6067 13.8593 12.7552Z" fill="white"/>
</g>
<defs>
<clipPath id="clip0">
<rect width="24" height="24" fill="white"/>
</clipPath>
</defs>
</svg>
